<svg preserveAspectRatio="none" overflow="visible" style="display: block;" width="212.772" height="213.034" viewBox="0 0 212.772 213.034" fill="none" xmlns="http://www.w3.org/2000/svg">
<g id="image 17 (Traced)" style="mix-blend-mode:luminosity">
<path fill-rule="evenodd" clip-rule="evenodd" d="M94.0263 0.430641C75.4759 2.57938 56.163 10.5086 40.572 22.3784C34.4481 27.0404 22.7208 39.4519 18.3467 45.9006C10.8021 57.0217 4.69268 71.5246 1.61191 85.6244C-0.700369 96.2072 -0.492649 118.068 2.02736 129.267C5.44577 144.461 12.7322 160.014 22.2942 172.526C27.0026 178.687 39.4026 190.418 45.8137 194.775C63.7897 206.996 83.4907 212.971 106.011 213.033C120.394 213.072 129.336 211.643 141.486 207.363C161.413 200.342 179.467 187.027 192.255 169.921C197.763 162.553 205.521 147.333 208.071 138.892C212.869 123.011 214.125 102.594 211.234 87.4737C202.886 43.8127 169.385 9.8719 126.626 1.75189C118.182 0.148251 102.097 -0.503815 94.0263 0.430641ZM107.037 61.2875C124.619 63.2266 147.991 69.274 163.673 75.9427C181.909 83.6973 185.082 86.113 185.082 92.2435C185.082 94.9613 184.503 96.2158 182.175 98.5459C178.308 102.417 174.94 102.398 167.127 98.4586C142.838 86.214 112.055 79.2167 82.5034 79.2227C73.1371 79.2253 53.0831 81.1404 46.8036 82.6328C42.0884 83.7529 37.8947 82.1031 35.5106 78.1881C33.2795 74.5256 33.33 72.4248 35.7337 68.8504C38.2939 65.0433 40.2206 64.2218 50.4477 62.5719C69.3623 59.5213 87.3246 59.1131 107.037 61.2875ZM100.261 97.6431C120.936 99.8167 141.639 105.636 159.113 114.184C166.127 117.615 169.695 120.878 169.695 123.863C169.695 126.74 167.294 130.275 164.573 131.403C162.109 132.425 161.327 132.209 152.779 128.16C136.907 120.642 124.036 116.626 106.866 113.834C94.0973 111.758 71.2651 111.935 57.8607 114.212C52.0641 115.197 46.9968 116.003 46.6002 116.003C46.2027 116.003 44.6939 115.006 43.2476 113.787C41.1661 112.034 40.6173 110.898 40.6173 108.341C40.6173 101.775 44.6691 100.03 65.4643 97.6431C78.8807 96.1028 85.6081 96.1028 100.261 97.6431ZM109.858 132.145C120.668 134.505 123.375 135.284 132.938 138.781C143.31 142.573 152.453 147.465 154.559 150.347C156.022 152.352 156.076 152.873 155.041 155.034C152.851 159.609 150.632 159.496 139.757 154.257C124.284 146.803 111.56 143.378 92.9963 141.673C82.694 140.726 68.2903 141.599 57.4581 143.828C50.7272 145.212 47.8482 144.531 46.607 141.262C45.6214 138.666 46.7121 135.287 48.9167 134.106C50.2545 133.389 60.4038 131.361 68.3989 130.21C69.8093 130.008 77.8874 129.961 86.3501 130.108C97.9414 130.307 103.74 130.81 109.858 132.145Z" fill="#34911D"/>
</g>
</svg>
